<svg width="40" height="39" viewBox="0 0 40 39" fill="none" xmlns="http://www.w3.org/2000/svg">
<path d="M39.1904 33.9364H34.9553C37.7664 30.2072 39.3147 25.5442 39.3147 20.8063C39.3147 9.33374 30.6501 0 19.9988 0C9.34791 0 0.682858 9.33414 0.682858 20.8063C0.682858 25.545 2.23032 30.2081 5.04109 33.9364H0.809553C0.36268 33.9364 0 34.2991 0 34.746V37.8684C0 38.3153 0.36268 38.678 0.809553 38.678H12.3663C12.8132 38.678 13.1759 38.3153 13.1759 37.8684V34.3902C13.1759 34.1975 13.1075 34.0117 12.9828 33.8656L12.9379 33.8126C12.8925 33.7587 12.8399 33.7114 12.782 33.6717C8.8047 30.9152 6.33354 25.9858 6.33354 20.8059C6.33354 12.4489 12.4639 5.65027 19.9988 5.65027C27.5333 5.65027 33.6636 12.4493 33.6636 20.8059C33.6636 26.0077 31.1771 30.9476 27.1755 33.6984C26.9557 33.8494 26.8245 34.0988 26.8245 34.3651V37.8676C26.8245 38.3145 27.1872 38.6772 27.6341 38.6772H39.1904C39.6373 38.6772 40 38.3145 40 37.8676V34.7452C40 34.2987 39.6381 33.9364 39.1904 33.9364Z" fill="white"/>
</svg>
